<svg width="48" height="45" viewBox="0 0 48 45" fill="none" xmlns="http://www.w3.org/2000/svg">
<path d="M27.6051 0L28.5739 2.01813L30.7907 2.31619L29.17 3.86239L29.5736 6.0637L27.6051 4.99875L25.6336 6.0637L26.0372 3.86239L24.4165 2.31619L26.6364 2.01813L27.6051 0Z" fill="white"/>
<path d="M27.5134 8.37097L29.8544 17.6575L27.1688 20.2034L25.5884 19.3775L25.4487 25.7083L23.384 24.1931L23.2474 31.3497L18.6368 28.1828L18.7082 32.1042L16.2988 30.6604V23.3672L20.8412 26.4627L20.9095 18.828L23.3157 20.6164V14.562L25.725 15.8691L27.5134 8.37097Z" fill="white"/>
<path d="M2.45591 41.6481H3.55191V41.7381C3.44796 41.7428 3.34947 41.7859 3.27558 41.8592C3.16278 41.995 3.06879 42.1454 2.99615 42.3063L1.97156 44.3027C1.87978 44.5242 1.73852 44.7217 1.55862 44.8802C1.4336 44.9568 1.28913 44.9956 1.14257 44.992C1.07002 44.9974 0.997134 44.9874 0.928665 44.9628C0.860195 44.9382 0.79767 44.8995 0.745155 44.8491C0.662293 44.7667 0.614464 44.6555 0.611649 44.5387C0.609687 44.495 0.61697 44.4514 0.633021 44.4107C0.649072 44.3701 0.67353 44.3332 0.704793 44.3027C0.734995 44.2718 0.771304 44.2476 0.8114 44.2316C0.851496 44.2155 0.894496 44.208 0.937654 44.2095C0.972764 44.2064 1.00813 44.2109 1.04135 44.2227C1.07457 44.2345 1.10486 44.2533 1.13015 44.2778C1.18015 44.3503 1.20916 44.4352 1.21398 44.5231C1.23261 44.6618 1.28953 44.7312 1.38475 44.7312C1.47996 44.7312 1.58346 44.6277 1.69523 44.4207L1.7418 44.3244L0.571286 42.2007C0.507876 42.0689 0.419275 41.9508 0.310481 41.853C0.21706 41.795 0.109915 41.7629 0 41.7598V41.6698H1.63003V41.7598H1.56793C1.37854 41.7598 1.28229 41.8033 1.28229 41.8965C1.28873 41.9494 1.30675 42.0003 1.33507 42.0455L2.15164 43.5358L2.7726 42.3156C2.84191 42.2009 2.88634 42.0729 2.903 41.9399C2.9031 41.9127 2.89632 41.8859 2.88329 41.862C2.87026 41.8382 2.85141 41.818 2.82849 41.8033C2.70641 41.7542 2.57465 41.7341 2.44349 41.7443L2.45591 41.6481Z" fill="white"/>
<path d="M5.56478 44.9169V44.8268H5.66723C5.82558 44.8268 5.92493 44.7927 5.97772 44.7275C6.02586 44.6095 6.04605 44.482 6.03671 44.3549V41.8711H4.8693V44.3549C4.85075 44.4913 4.87805 44.63 4.94692 44.7492C5.02996 44.8105 5.13308 44.8383 5.23567 44.8268H5.33502V44.9169H3.62427V44.8268H3.72673C3.77733 44.8337 3.8288 44.83 3.87793 44.8162C3.92707 44.8023 3.97283 44.7784 4.01237 44.7461C4.07285 44.6252 4.09659 44.4892 4.08067 44.3549V42.2064C4.09407 42.0755 4.07152 41.9435 4.01547 41.8245C3.97201 41.7655 3.87576 41.7344 3.72673 41.7344H3.62427V41.6444H7.27242V41.7344H7.18549C7.1303 41.7258 7.0739 41.7294 7.02025 41.745C6.96661 41.7605 6.91703 41.7877 6.87501 41.8245C6.81465 41.941 6.78982 42.0727 6.8036 42.2033V44.3518C6.78424 44.4886 6.81276 44.6279 6.88432 44.7461C6.97469 44.8094 7.08528 44.8371 7.1948 44.8237H7.27242V44.9138L5.56478 44.9169Z" fill="white"/>
<path d="M8.62232 41.8352V43.2478H8.74341C8.82704 43.2533 8.91086 43.2406 8.98911 43.2106C9.06736 43.1806 9.13818 43.134 9.19671 43.074C9.3147 42.9198 9.37114 42.7272 9.35506 42.5337C9.37201 42.3421 9.3154 42.1511 9.19671 41.9997C9.13364 41.9401 9.05878 41.8944 8.97696 41.8655C8.89514 41.8367 8.80818 41.8253 8.72168 41.832L8.62232 41.8352ZM8.62232 43.4372V44.3438C8.61465 44.4567 8.6262 44.5701 8.65648 44.6792C8.68113 44.7275 8.7217 44.7659 8.77136 44.7878C8.87111 44.8219 8.97669 44.8356 9.08184 44.8282V44.9182H7.41455V44.8282C7.51973 44.8365 7.62548 44.8228 7.72503 44.7878C7.77414 44.7651 7.81448 44.7269 7.83991 44.6792C7.86851 44.5709 7.879 44.4586 7.87096 44.3469V42.2233C7.87889 42.1116 7.8684 41.9993 7.83991 41.891C7.81542 41.8418 7.7749 41.8024 7.72503 41.7793C7.62531 41.745 7.51971 41.7313 7.41455 41.7389V41.6489H8.83966C9.19568 41.6172 9.55203 41.7058 9.85183 41.9004C9.94823 41.9727 10.0265 42.0664 10.0804 42.1742C10.1343 42.282 10.1623 42.4008 10.1623 42.5213C10.1669 42.7219 10.0959 42.9169 9.9636 43.0678C9.81929 43.227 9.62779 43.3358 9.41716 43.3782C9.1561 43.4261 8.89069 43.4458 8.62543 43.4372" fill="white"/>
<path d="M11.5682 43.8026L11.0807 42.6756L10.5809 43.8026H11.5682ZM11.6489 43.9827H10.497L10.3604 44.2932C10.3206 44.3758 10.2974 44.4655 10.2921 44.5571C10.2903 44.5978 10.2998 44.6381 10.3195 44.6738C10.3392 44.7094 10.3684 44.7389 10.4039 44.7589C10.5033 44.7961 10.6083 44.816 10.7144 44.8179V44.9079H9.62769V44.8179C9.73789 44.804 9.83991 44.7525 9.91643 44.672C10.0333 44.522 10.1274 44.3557 10.1959 44.1783L11.3664 41.5671H11.413L12.5928 44.2497C12.6565 44.4248 12.75 44.5876 12.8691 44.7309C12.9346 44.7855 13.0167 44.8162 13.102 44.8179V44.9079H11.5185V44.8179H11.593C11.6852 44.8253 11.7776 44.8071 11.86 44.7651C11.8774 44.7523 11.8913 44.7354 11.9005 44.7159C11.9097 44.6964 11.914 44.6749 11.9128 44.6533C11.9172 44.6235 11.9172 44.5931 11.9128 44.5633C11.9128 44.5633 11.8849 44.4888 11.8414 44.3832L11.6489 43.9827Z" fill="white"/>
<path d="M14.4104 43.1187C14.5827 43.1282 14.7551 43.1018 14.9165 43.0411C15.02 42.9952 15.1076 42.9195 15.168 42.8237C15.23 42.7153 15.2601 42.5915 15.255 42.4667C15.2602 42.3422 15.2312 42.2187 15.1711 42.1096C15.1126 42.0161 15.027 41.9425 14.9258 41.8985C14.7616 41.8406 14.5874 41.8163 14.4136 41.8271L14.4104 43.1187ZM14.4104 43.305V44.4755C14.4052 44.5114 14.4085 44.5479 14.4199 44.5823C14.4313 44.6167 14.4506 44.648 14.4762 44.6736C14.5019 44.6992 14.5331 44.7185 14.5675 44.73C14.6019 44.7414 14.6385 44.7446 14.6744 44.7394C14.7984 44.7411 14.9211 44.7123 15.0314 44.6556C15.1375 44.5999 15.2241 44.5133 15.2798 44.4072C15.3386 44.2953 15.3685 44.1704 15.3667 44.0439C15.3688 43.9003 15.3323 43.7588 15.2612 43.6341C15.1965 43.5178 15.0933 43.4278 14.9693 43.3795C14.7897 43.3231 14.6016 43.2989 14.4136 43.3081L14.4104 43.305ZM15.2891 43.1808C15.5238 43.2211 15.7472 43.311 15.9442 43.4447C16.0305 43.5117 16.0999 43.598 16.1469 43.6967C16.1938 43.7953 16.2169 43.9036 16.2143 44.0129C16.2161 44.1337 16.1888 44.2531 16.1348 44.3612C16.0807 44.4692 16.0015 44.5628 15.9039 44.6338C15.5944 44.8486 15.2209 44.9515 14.8451 44.9257H13.1934V44.8357C13.2985 44.8442 13.4044 44.8305 13.5038 44.7953C13.5531 44.7727 13.5935 44.7345 13.6187 44.6866C13.6477 44.5784 13.6582 44.4661 13.6498 44.3544V42.2307C13.658 42.119 13.6475 42.0067 13.6187 41.8985C13.5939 41.8503 13.5534 41.812 13.5038 41.7898C13.4042 41.7553 13.2985 41.7416 13.1934 41.7495V41.6594H14.7458C15.0145 41.6439 15.2839 41.6776 15.5406 41.7588C15.6918 41.8233 15.8204 41.9314 15.9101 42.0693C15.9967 42.1931 16.0433 42.3404 16.0436 42.4915C16.0422 42.6488 15.9812 42.7997 15.8728 42.9138C15.7025 43.0643 15.4942 43.1653 15.2705 43.2056" fill="white"/>
<path d="M19.668 41.7382C19.5477 41.722 19.4257 41.7519 19.3265 41.822C19.2655 41.9134 19.238 42.0231 19.2489 42.1325V44.4238C19.2337 44.5423 19.2612 44.6622 19.3265 44.7622C19.4321 44.828 19.5567 44.8564 19.6804 44.843V44.933H18.0287V44.843C18.1229 44.8487 18.2174 44.8382 18.3081 44.8119C18.36 44.7923 18.4023 44.7534 18.4261 44.7032C18.456 44.6187 18.4687 44.5289 18.4633 44.4393V41.8748H17.6716V42.8528C17.6716 43.2668 17.6613 43.5772 17.6406 43.7842C17.6219 43.9995 17.5651 44.2098 17.4729 44.4052C17.3972 44.579 17.276 44.7292 17.1221 44.8399C16.9817 44.9341 16.8161 44.9839 16.647 44.9827C16.5134 44.9908 16.3818 44.9462 16.2806 44.8585C16.2382 44.8189 16.2046 44.7708 16.1821 44.7173C16.1596 44.6637 16.1488 44.606 16.1502 44.548C16.1464 44.4572 16.175 44.3681 16.231 44.2965C16.2591 44.2636 16.2945 44.2377 16.3344 44.221C16.3743 44.2043 16.4176 44.1972 16.4607 44.2003C16.647 44.2003 16.7464 44.3151 16.7712 44.5449C16.7712 44.6474 16.8209 44.7001 16.8923 44.7001C16.9555 44.6895 17.0157 44.6658 17.0692 44.6305C17.1227 44.5952 17.1682 44.5491 17.2028 44.4952C17.3288 44.3324 17.4072 44.1379 17.4294 43.9333C17.4772 43.5814 17.499 43.2265 17.4946 42.8714V42.2504C17.501 42.1326 17.4905 42.0145 17.4636 41.8996C17.4527 41.871 17.4361 41.845 17.4147 41.8231C17.3933 41.8012 17.3677 41.7839 17.3394 41.7723C17.2319 41.7393 17.1196 41.7247 17.0072 41.7288V41.6388H19.668V41.7382Z" fill="white"/>
<path d="M21.7201 41.8215C21.6185 41.7994 21.5129 41.8031 21.4131 41.8324C21.3133 41.8617 21.2224 41.9156 21.1488 41.9892C21.0753 42.0627 21.0214 42.1536 20.9921 42.2534C20.9628 42.3532 20.959 42.4588 20.9812 42.5605C20.9751 42.7063 21.0083 42.8511 21.0774 42.9796C21.1356 43.0816 21.228 43.1597 21.3383 43.2001C21.5014 43.2482 21.6713 43.2691 21.8412 43.2622H21.9778V41.8277L21.7201 41.8215ZM21.7636 43.4267L20.708 44.917H19.6741V44.827C19.7571 44.824 19.8372 44.7958 19.9038 44.7463C19.9863 44.6651 20.0602 44.5756 20.1243 44.4792L20.916 43.3708C20.7449 43.3353 20.585 43.2586 20.4503 43.1473C20.3657 43.0725 20.2985 42.9801 20.2534 42.8766C20.2084 42.773 20.1866 42.6609 20.1895 42.548C20.1859 42.3603 20.2473 42.1771 20.3633 42.0295C20.4758 41.8813 20.6323 41.7726 20.8104 41.7191C21.0954 41.6542 21.3877 41.6271 21.6798 41.6383H23.198V41.7284C23.0929 41.7204 22.9872 41.7342 22.8876 41.7687C22.8372 41.7912 22.7965 41.8308 22.7727 41.8805C22.7429 41.9886 22.7314 42.1009 22.7385 42.2127V44.3364C22.7313 44.4483 22.7429 44.5606 22.7727 44.6686C22.7969 44.7162 22.8362 44.7544 22.8844 44.7773C22.9837 44.8136 23.0895 44.8284 23.1949 44.8208V44.9108H21.537V44.8208C21.6421 44.8285 21.7478 44.8148 21.8474 44.7804C21.897 44.7583 21.9375 44.7199 21.9623 44.6717C21.9926 44.5627 22.0041 44.4493 21.9965 44.3364V43.405L21.7636 43.4267Z" fill="white"/>
<path d="M25.1352 41.3184C24.8887 41.3352 24.6419 41.2892 24.418 41.1849C24.3565 41.1576 24.3034 41.1145 24.2641 41.0599C24.2248 41.0054 24.2008 40.9413 24.1944 40.8744C24.1937 40.8434 24.1997 40.8127 24.2121 40.7843C24.2244 40.7559 24.2427 40.7305 24.2658 40.7098C24.3119 40.6663 24.3733 40.6429 24.4366 40.6446C24.567 40.6446 24.6663 40.7284 24.7471 40.8992C24.7749 40.9768 24.8258 41.044 24.893 41.0917C24.9658 41.1324 25.0487 41.1518 25.1321 41.1476C25.2236 41.1547 25.3152 41.1353 25.396 41.0917C25.4661 41.0387 25.5207 40.968 25.5543 40.8868C25.6288 40.7285 25.7313 40.6477 25.8648 40.6477C25.929 40.6462 25.9913 40.6695 26.0387 40.7129C26.0626 40.7356 26.0813 40.7631 26.0936 40.7937C26.1059 40.8242 26.1116 40.857 26.1101 40.8899C26.1045 40.9579 26.08 41.023 26.0394 41.0779C25.9988 41.1327 25.9437 41.1752 25.8803 41.2004C25.6522 41.2978 25.4044 41.3403 25.1569 41.3246L25.1352 41.3184ZM25.7406 42.1815C25.7497 42.0589 25.7273 41.936 25.6754 41.8245C25.635 41.7624 25.5326 41.7313 25.3649 41.7313H25.2532V41.6413H27.0074V41.7313H26.8925C26.8375 41.7231 26.7815 41.7266 26.728 41.7416C26.6745 41.7566 26.6247 41.7827 26.582 41.8182C26.5191 41.9351 26.4931 42.0682 26.5075 42.2001V44.3518C26.4916 44.4857 26.5176 44.6213 26.582 44.7399C26.625 44.7749 26.6748 44.8004 26.7283 44.8149C26.7818 44.8293 26.8378 44.8323 26.8925 44.8237H27.0074V44.9137H25.2532V44.8237H25.3618C25.417 44.8327 25.4735 44.8294 25.5272 44.8138C25.581 44.7982 25.6305 44.7708 25.6723 44.7337C25.7326 44.616 25.7574 44.4833 25.7437 44.3518V42.5758L24.5918 44.3859C24.5764 44.5034 24.5902 44.6229 24.6322 44.7337C24.6715 44.802 24.775 44.8361 24.9427 44.8361H25.0544V44.9262H23.2971V44.8361H23.4058C23.461 44.8449 23.5174 44.8415 23.5711 44.8259C23.6248 44.8103 23.6744 44.7831 23.7163 44.7461C23.7767 44.6284 23.8015 44.4957 23.7877 44.3642V42.2126C23.7997 42.0823 23.7795 41.9512 23.7287 41.8307C23.6894 41.7727 23.5859 41.7437 23.4182 41.7437H23.2971V41.6537H25.0513V41.7437H24.9427C24.887 41.7346 24.83 41.7385 24.7761 41.7552C24.7222 41.7719 24.6729 41.8009 24.6322 41.84C24.5704 41.9538 24.5444 42.0837 24.5577 42.2126V44.004L25.7406 42.1815Z" fill="white"/>
<path d="M29.4976 43.3464V44.3337C29.4887 44.4473 29.5113 44.5612 29.5628 44.6628C29.592 44.6978 29.6294 44.7249 29.6717 44.7417C29.714 44.7585 29.7598 44.7645 29.805 44.7591C29.8859 44.7641 29.9668 44.7496 30.0409 44.7166C30.115 44.6836 30.18 44.6332 30.2304 44.5697C30.3286 44.4312 30.3788 44.2644 30.3732 44.0947C30.3789 43.9306 30.3333 43.7689 30.2428 43.632C30.1752 43.5224 30.0723 43.4392 29.9509 43.3961C29.8029 43.3586 29.6503 43.3418 29.4976 43.3464ZM28.2371 41.6481H31.0593V42.536H30.9662C30.9435 42.393 30.8906 42.2565 30.811 42.1355C30.7485 42.0398 30.6587 41.9652 30.5533 41.9213C30.4058 41.8751 30.2513 41.8551 30.0969 41.8623H29.4976V43.1353H29.9168C30.2727 43.106 30.6287 43.192 30.932 43.3806C31.0324 43.457 31.113 43.5563 31.167 43.6703C31.2211 43.7843 31.2469 43.9096 31.2425 44.0357C31.2462 44.21 31.1891 44.3801 31.0811 44.5169C30.9763 44.6542 30.837 44.7614 30.6774 44.8274C30.4496 44.9037 30.2096 44.9374 29.9696 44.9268H28.2153V44.8367C28.3499 44.8499 28.4853 44.8218 28.6034 44.756C28.6749 44.6609 28.7061 44.5416 28.6904 44.4238V42.1852C28.707 42.0585 28.6761 41.9302 28.6034 41.825C28.4864 41.7565 28.35 41.7281 28.2153 41.7443L28.2371 41.6481Z" fill="white"/>
<path d="M33.2482 41.7565C33.1015 41.7563 32.9581 41.7999 32.8364 41.8818C32.7147 41.9637 32.6202 42.0801 32.5651 42.216C32.42 42.557 32.3542 42.9264 32.3726 43.2965C32.3398 43.731 32.4429 44.165 32.6676 44.5384C32.7326 44.6291 32.8191 44.7021 32.9194 44.7509C33.0197 44.7997 33.1306 44.8227 33.242 44.8179C33.3901 44.8233 33.536 44.7808 33.658 44.6968C33.8153 44.5695 33.9301 44.3973 33.9871 44.2031C34.0743 43.9165 34.1142 43.6177 34.1051 43.3182C34.1197 42.9898 34.0787 42.6613 33.984 42.3464C33.9285 42.1676 33.8203 42.0096 33.6736 41.8931C33.5476 41.8037 33.3964 41.7569 33.242 41.7596L33.2482 41.7565ZM33.214 41.6044C33.4422 41.5854 33.6718 41.615 33.8878 41.691C34.1037 41.7671 34.3012 41.8879 34.4671 42.0457C34.6331 42.2034 34.7638 42.3945 34.8507 42.6063C34.9376 42.8181 34.9787 43.0459 34.9714 43.2748C34.9779 43.6707 34.8498 44.0571 34.6081 44.3708C34.4476 44.5763 34.2399 44.7401 34.0026 44.8482C33.7654 44.9563 33.5055 45.0055 33.2451 44.9917C32.9864 45.0058 32.728 44.9589 32.4907 44.8548C32.2534 44.7507 32.0439 44.5924 31.879 44.3925C31.6238 44.0755 31.4885 43.6786 31.4971 43.2717C31.4915 43.046 31.5327 42.8216 31.6182 42.6126C31.7037 42.4037 31.8316 42.2147 31.9939 42.0577C32.153 41.8991 32.3442 41.7763 32.5546 41.6976C32.7651 41.6189 32.9899 41.5861 33.214 41.6013" fill="white"/>
<path d="M38.3805 41.7377C38.2602 41.7215 38.1382 41.7515 38.039 41.8215C37.978 41.9129 37.9505 42.0226 37.9614 42.132V44.4233C37.9462 44.5418 37.9737 44.6617 38.039 44.7618C38.1446 44.8275 38.2692 44.856 38.3929 44.8425V44.9325H36.7505V44.8425C36.8447 44.8481 36.9392 44.8376 37.0299 44.8114C37.0818 44.7919 37.1241 44.7529 37.1479 44.7028C37.1781 44.6182 37.1908 44.5284 37.1851 44.4389V41.8743H36.3996V42.8523C36.3996 43.2621 36.3996 43.5726 36.3686 43.7837C36.3504 43.9991 36.2936 44.2094 36.2009 44.4047C36.1253 44.5786 36.004 44.7287 35.8501 44.8394C35.7099 44.934 35.5442 44.9838 35.375 44.9822C35.2414 44.9903 35.1099 44.9457 35.0087 44.858C34.9663 44.8183 34.9329 44.7702 34.9104 44.7167C34.8879 44.6632 34.877 44.6055 34.8783 44.5475C34.8744 44.4568 34.903 44.3676 34.959 44.296C34.9872 44.2633 35.0227 44.2376 35.0626 44.2209C35.1024 44.2042 35.1456 44.197 35.1888 44.1998C35.375 44.1998 35.4744 44.3147 35.4992 44.5444C35.4992 44.6469 35.5489 44.6997 35.6203 44.6997C35.6835 44.689 35.7438 44.6653 35.7972 44.63C35.8507 44.5947 35.8962 44.5487 35.9308 44.4947C36.0564 44.3317 36.1348 44.1373 36.1575 43.9328C36.2003 43.5899 36.219 43.2444 36.2133 42.8989V42.2779C36.2202 42.1601 36.2097 42.0419 36.1823 41.9271C36.1716 41.8984 36.155 41.8723 36.1336 41.8503C36.1122 41.8284 36.0865 41.8112 36.0581 41.7998C35.9506 41.7667 35.8383 41.752 35.7259 41.7563V41.6663H38.3867L38.3805 41.7377Z" fill="white"/>
<path d="M39.7818 43.3432V44.3305C39.772 44.4442 39.7946 44.5583 39.847 44.6596C39.876 44.6948 39.9134 44.7221 39.9557 44.7389C39.9981 44.7557 40.044 44.7616 40.0892 44.7559C40.1702 44.7612 40.2512 44.7467 40.3253 44.7137C40.3994 44.6807 40.4644 44.6302 40.5146 44.5665C40.6133 44.4282 40.6635 44.2612 40.6574 44.0915C40.6631 43.9274 40.6175 43.7657 40.527 43.6288C40.4594 43.5192 40.3565 43.436 40.2351 43.3929C40.0871 43.3554 39.9345 43.3386 39.7818 43.3432ZM39.7818 43.1321H40.2134C40.5694 43.1025 40.9254 43.1886 41.2287 43.3774C41.3291 43.4538 41.4096 43.5531 41.4637 43.6671C41.5177 43.7811 41.5436 43.9064 41.5392 44.0325C41.5425 44.2067 41.4855 44.3768 41.3777 44.5137C41.2729 44.651 41.1337 44.7582 40.9741 44.8242C40.7462 44.9005 40.5063 44.9342 40.2662 44.9236H38.512V44.8335C38.6537 44.8446 38.7952 44.8098 38.9156 44.7342C38.9859 44.6387 39.016 44.5194 38.9994 44.4019V42.2286C39.0172 42.0829 38.9924 41.9351 38.928 41.8032C38.8145 41.7342 38.681 41.7058 38.5492 41.7225V41.6324H40.232V41.7225C40.1267 41.7158 40.021 41.7306 39.9216 41.766C39.8761 41.7888 39.8383 41.8244 39.8129 41.8684C39.7828 41.969 39.7723 42.0744 39.7818 42.1789V43.1321Z" fill="white"/>
<path d="M45.2862 41.7564C45.1543 41.7548 45.0245 41.7896 44.9111 41.857C44.7978 41.9244 44.7051 42.0217 44.6435 42.1383C44.4654 42.4972 44.3851 42.8966 44.4106 43.2964C44.39 43.6825 44.4658 44.0677 44.6311 44.4172C44.6927 44.5357 44.7856 44.635 44.8998 44.7043C45.0139 44.7736 45.1449 44.8103 45.2784 44.8103C45.412 44.8103 45.5429 44.7736 45.6571 44.7043C45.7712 44.635 45.8642 44.5357 45.9258 44.4172C46.0892 44.0716 46.1639 43.6906 46.1431 43.3088C46.1431 42.2739 45.8564 41.7564 45.2831 41.7564H45.2862ZM43.5413 43.3461H42.9762V44.3583C42.9701 44.4621 42.9764 44.5663 42.9948 44.6687C43.0138 44.7198 43.05 44.7627 43.0973 44.7898C43.1672 44.829 43.247 44.8474 43.327 44.8426H43.4357V44.9326H41.7188V44.8426H41.8274C41.9082 44.8486 41.989 44.8313 42.0603 44.7929C42.1066 44.7655 42.1417 44.7226 42.1596 44.6718C42.1796 44.5696 42.1869 44.4654 42.1814 44.3614V42.2097C42.1872 42.1059 42.1809 42.0017 42.1627 41.8992C42.1443 41.8479 42.1079 41.8049 42.0603 41.7782C41.9903 41.7391 41.9106 41.7208 41.8305 41.7254H41.7188V41.6353H43.4295V41.7254H43.3208C43.2401 41.7196 43.1593 41.7368 43.088 41.7751C43.0419 41.8027 43.0068 41.8455 42.9886 41.8961C42.9679 41.9982 42.9606 42.1026 42.9669 42.2066V43.1381H43.532C43.5425 42.9205 43.5975 42.7074 43.6936 42.512C43.7897 42.3165 43.9249 42.1428 44.0908 42.0017C44.3824 41.763 44.7389 41.6173 45.1143 41.5835C45.4896 41.5497 45.8664 41.6294 46.1959 41.8123C46.4489 41.9603 46.6562 42.1752 46.7951 42.4333C46.9343 42.6917 47.0058 42.9812 47.0031 43.2747C47.012 43.7261 46.8437 44.163 46.5343 44.4918C46.3729 44.6609 46.1772 44.7936 45.9603 44.8809C45.7435 44.9681 45.5104 45.008 45.2769 44.9979C45.053 45.0092 44.8291 44.975 44.6188 44.8974C44.4085 44.8197 44.2161 44.7002 44.0533 44.5461C43.8905 44.392 43.7606 44.2065 43.6715 44.0008C43.5825 43.795 43.536 43.5734 43.5351 43.3492" fill="white"/>
<path d="M10.0245 39.0837C10.0468 39.1306 10.0839 39.1688 10.1301 39.1924C10.1972 39.2266 10.2722 39.2427 10.3474 39.239H10.4499V39.3259H8.77328V39.239H8.87885C8.95743 39.2424 9.03554 39.2253 9.1055 39.1893C9.14836 39.1623 9.18111 39.1219 9.19864 39.0744C9.2232 38.9729 9.23158 38.8681 9.22348 38.764V36.3826L7.98156 39.3135H7.92567L6.68374 36.4043V38.6677C6.67657 38.7649 6.67657 38.8624 6.68374 38.9596C6.70366 39.0377 6.75105 39.106 6.81725 39.1521C6.9113 39.2066 7.01919 39.2325 7.12773 39.2266V39.3135H6.05657V39.2266H6.09072C6.15859 39.2287 6.22618 39.2171 6.28943 39.1924C6.34441 39.1731 6.39282 39.1386 6.42915 39.0931C6.46578 39.0409 6.49115 38.9817 6.50367 38.9192C6.50367 38.9006 6.50367 38.8198 6.50367 38.677V36.662C6.51039 36.5577 6.50096 36.4529 6.47572 36.3515C6.45307 36.3057 6.41598 36.2686 6.37016 36.2459C6.3039 36.2124 6.23014 36.1963 6.15593 36.1994H6.05347V36.1124H7.3668L8.2703 38.2299L9.14276 36.1124H10.4499V36.1994H10.3505C10.2719 36.1957 10.1937 36.2128 10.1239 36.2491C10.0805 36.2749 10.0468 36.3141 10.0276 36.3608C10.0028 36.4623 9.99443 36.5671 10.0028 36.6713V38.7888C9.99594 38.8929 10.0043 38.9975 10.0276 39.0993L10.0245 39.0837ZM12.437 39.3414V39.2545H12.4991C12.5902 39.262 12.6817 39.2437 12.763 39.2017C12.7801 39.1894 12.7939 39.173 12.8031 39.1541C12.8123 39.1351 12.8166 39.1141 12.8158 39.0931C12.8198 39.0642 12.8198 39.035 12.8158 39.0061C12.8158 39.0061 12.7878 38.9316 12.7443 38.8292L12.5736 38.4286H11.4217L11.2882 38.7391C11.2502 38.82 11.228 38.9075 11.223 38.9968C11.2207 39.0368 11.2297 39.0766 11.2489 39.1117C11.2681 39.1468 11.2968 39.1759 11.3317 39.1955C11.4312 39.2317 11.5362 39.2506 11.6421 39.2514V39.3383H10.5772V39.2514C10.6858 39.2375 10.7865 39.1871 10.8628 39.1086C10.9768 38.9612 11.0688 38.798 11.136 38.6242L12.2848 36.0597H12.3283L13.4864 38.6956C13.5541 38.8601 13.6485 39.0122 13.7658 39.1458C13.8302 39.1978 13.9098 39.2272 13.9925 39.2297V39.3166L12.437 39.3414ZM12.0023 37.1463L11.5086 38.2517H12.4804L12.0023 37.1463ZM17.1625 36.2863C17.113 36.3181 17.0749 36.3649 17.0538 36.4198C17.0229 36.5203 17.0093 36.6253 17.0135 36.7303V39.4066H16.9327L14.7594 36.7303V38.7733C14.7505 38.8414 14.7573 38.9108 14.7794 38.9759C14.8015 39.041 14.8382 39.1002 14.8867 39.1489C14.9698 39.2142 15.0728 39.2493 15.1785 39.2483H15.2561V39.3352H14.1136V39.2483C14.2461 39.2605 14.3782 39.2217 14.483 39.1396C14.5622 39.036 14.5988 38.9061 14.5855 38.7764V36.5099L14.5172 36.4229C14.4689 36.3556 14.4077 36.2986 14.3371 36.2553C14.2665 36.2251 14.1903 36.2102 14.1136 36.2118V36.1249H15.253L16.8396 38.1182V36.7365C16.8533 36.6005 16.824 36.4637 16.7558 36.3453C16.7066 36.2952 16.6466 36.2571 16.5804 36.2339C16.5142 36.2108 16.4435 36.2032 16.3739 36.2118V36.1249H17.4357V36.2118C17.3413 36.2184 17.2489 36.2415 17.1625 36.2801V36.2863ZM19.4445 39.3383V39.2514H19.5097C19.6009 39.2589 19.6924 39.2406 19.7736 39.1986C19.7907 39.1863 19.8045 39.1699 19.8137 39.151C19.823 39.132 19.8273 39.111 19.8264 39.09C19.8309 39.0612 19.8309 39.0318 19.8264 39.003C19.8264 39.003 19.7985 38.9285 19.755 38.826L19.5842 38.4255H18.423L18.2895 38.736C18.2503 38.8167 18.2271 38.9042 18.2212 38.9937C18.219 39.0337 18.228 39.0735 18.2472 39.1086C18.2664 39.1437 18.295 39.1728 18.3299 39.1924C18.4295 39.2286 18.5345 39.2475 18.6404 39.2483V39.3352H17.5878V39.2483C17.6954 39.2339 17.795 39.1836 17.8704 39.1055C17.9854 38.9582 18.0785 38.7951 18.1467 38.6211L19.2955 36.0566H19.3545L20.5126 38.6925C20.5763 38.8642 20.6687 39.0238 20.7858 39.1645C20.8502 39.2164 20.9298 39.2459 21.0125 39.2483V39.3352L19.4445 39.3383ZM19.0099 37.1432L18.5162 38.2486H19.488L19.0099 37.1432ZM23.605 38.2144C23.5796 38.1711 23.5417 38.1364 23.4963 38.115C23.4348 38.0841 23.3664 38.0691 23.2976 38.0716H23.2138V37.9846H24.7662V38.0716C24.681 38.0724 24.5967 38.0893 24.5178 38.1213C24.4692 38.1485 24.4309 38.1911 24.4091 38.2423C24.3902 38.3142 24.3828 38.3886 24.3874 38.4628V39.1303C24.1824 39.2226 23.9679 39.2924 23.7478 39.3383C23.52 39.3851 23.288 39.408 23.0554 39.4066C22.7962 39.4153 22.5378 39.3731 22.2947 39.2825C22.0996 39.2047 21.9191 39.0944 21.7607 38.9564C21.613 38.8284 21.4908 38.6735 21.4006 38.5C21.2882 38.2724 21.2318 38.0212 21.236 37.7673C21.2314 37.5388 21.2743 37.3118 21.3619 37.1007C21.4496 36.8896 21.5801 36.699 21.7452 36.5409C21.9158 36.3741 22.1185 36.2437 22.3411 36.1577C22.5637 36.0718 22.8015 36.0321 23.0399 36.041C23.1846 36.0393 23.3292 36.0518 23.4715 36.0783C23.5871 36.105 23.7003 36.1414 23.8099 36.187C23.8986 36.2265 23.9912 36.2566 24.0862 36.277C24.1323 36.2761 24.1764 36.2584 24.2104 36.2273C24.263 36.1758 24.3014 36.1116 24.3222 36.041H24.4091V37.1743H24.3222C24.2382 36.897 24.0726 36.6514 23.8472 36.4695C23.6491 36.313 23.4041 36.2276 23.1517 36.2273C22.934 36.2191 22.7208 36.2909 22.5525 36.4291C22.3841 36.5781 22.2658 36.7755 22.214 36.9942C22.1475 37.237 22.1141 37.4876 22.1147 37.7394C22.1098 38.0134 22.1464 38.2866 22.2233 38.5497C22.2783 38.7556 22.4021 38.9364 22.5742 39.062C22.746 39.1729 22.9473 39.2292 23.1517 39.2235C23.232 39.2231 23.3121 39.2148 23.3907 39.1986C23.4763 39.1812 23.5603 39.1573 23.6422 39.1272V38.4597C23.648 38.3771 23.6396 38.2941 23.6174 38.2144H23.605ZM26.1851 39.0154C26.2015 39.056 26.231 39.0899 26.2689 39.1117C26.3308 39.141 26.3993 39.1539 26.4676 39.1489H26.6601C26.9167 39.1621 27.1704 39.0889 27.3804 38.9409C27.5745 38.7817 27.7118 38.5638 27.7716 38.32H27.8586L27.7158 39.3414H24.9401V39.2545H25.0487C25.1263 39.2576 25.2033 39.2405 25.2723 39.2048C25.316 39.1788 25.349 39.1381 25.3654 39.09C25.3901 38.9884 25.3984 38.8836 25.3902 38.7795V36.662C25.3973 36.5731 25.3973 36.4838 25.3902 36.395C25.3773 36.3436 25.3465 36.2985 25.3033 36.2677C25.2306 36.2203 25.1447 36.1975 25.058 36.2025H24.9494V36.1155H27.6381V37.0656H27.5481C27.5239 36.8862 27.4579 36.715 27.3556 36.5657C27.2634 36.4581 27.1413 36.3802 27.0048 36.3422C26.8418 36.3059 26.6748 36.2913 26.508 36.2987H26.1758V37.5934H26.241C26.3251 37.6007 26.4098 37.5869 26.4873 37.5533C26.5648 37.5197 26.6327 37.4673 26.685 37.4009C26.7898 37.2303 26.8496 37.0359 26.8588 36.8359H26.9489V38.5249H26.8588C26.8475 38.3688 26.8075 38.2162 26.7408 38.0747C26.6962 37.9754 26.6212 37.8928 26.5266 37.8387C26.4156 37.7928 26.2957 37.7726 26.1758 37.7797V38.6832C26.1707 38.7872 26.178 38.8914 26.1975 38.9937L26.1851 39.0154ZM31.9259 37.491C31.7847 37.6493 31.5964 37.7582 31.3888 37.8015C31.1327 37.8474 30.8725 37.8662 30.6125 37.8573V38.7484C30.6047 38.8591 30.6152 38.9703 30.6436 39.0775C30.668 39.1261 30.7087 39.1645 30.7585 39.1862C30.858 39.221 30.9638 39.2348 31.069 39.2266V39.3135H29.4358V39.2266C29.541 39.2357 29.6469 39.222 29.7463 39.1862C29.7943 39.1629 29.8334 39.1248 29.8581 39.0775C29.8864 38.9713 29.8969 38.8612 29.8891 38.7515V36.662C29.8971 36.5513 29.8866 36.4401 29.8581 36.3329C29.8342 36.285 29.7948 36.2467 29.7463 36.2242C29.6467 36.1894 29.541 36.1756 29.4358 36.1839V36.0969H30.8361C31.1854 36.0657 31.535 36.1521 31.8296 36.3422C31.9268 36.4138 32.0055 36.5074 32.0595 36.6154C32.1135 36.7233 32.1411 36.8425 32.1401 36.9632C32.1436 37.1593 32.0739 37.3497 31.9445 37.4972L31.9259 37.491ZM31.1528 36.4633C31.0905 36.4055 31.0171 36.361 30.937 36.3327C30.8569 36.3044 30.7718 36.2928 30.6871 36.2987H30.5908V37.6866H30.7088C30.7907 37.6917 30.8728 37.6791 30.9494 37.6496C31.026 37.6201 31.0954 37.5745 31.1528 37.5158C31.2685 37.3642 31.3238 37.175 31.308 36.9849C31.325 36.7966 31.2695 36.6089 31.1528 36.4602V36.4633ZM34.1396 39.3228V39.2359H34.2048C34.296 39.2434 34.3874 39.2251 34.4687 39.1831C34.4858 39.1708 34.4996 39.1544 34.5088 39.1354C34.518 39.1165 34.5224 39.0955 34.5215 39.0744C34.526 39.0456 34.526 39.0163 34.5215 38.9875C34.5215 38.9875 34.4936 38.913 34.4501 38.8105L34.2793 38.41H33.143L33.0095 38.7205C32.9714 38.8014 32.9493 38.8889 32.9443 38.9782C32.9424 39.0181 32.9515 39.0578 32.9707 39.0928C32.9898 39.1279 33.0183 39.157 33.0529 39.1769C33.1525 39.213 33.2575 39.2319 33.3634 39.2328V39.3197H32.2954V39.2328C32.4041 39.2191 32.5048 39.1687 32.581 39.09C32.6964 38.943 32.7895 38.7798 32.8573 38.6056L34.0061 36.041H34.0527L35.189 38.6801C35.2528 38.8518 35.3451 39.0113 35.4623 39.1521C35.5266 39.204 35.6062 39.2334 35.6889 39.2359V39.3228H34.1396ZM33.7049 37.1277L33.2113 38.233H34.1831L33.7049 37.1277ZM37.0985 39.0837C37.1212 39.1303 37.1582 39.1684 37.2041 39.1924C37.2701 39.2265 37.344 39.2426 37.4183 39.239H37.5239V39.3259H35.8442V39.239H35.9497C36.0283 39.2427 36.1065 39.2255 36.1764 39.1893C36.2201 39.1633 36.2531 39.1226 36.2695 39.0744C36.2939 38.9729 36.3023 38.8681 36.2944 38.764V36.662C36.301 36.5578 36.2927 36.4533 36.2695 36.3515C36.2472 36.3047 36.2101 36.2665 36.164 36.2428C36.0978 36.2089 36.024 36.1928 35.9497 36.1963H35.8442V36.1093H37.5239V36.1963H37.4183C37.3407 36.1928 37.2636 36.21 37.1948 36.2459C37.1501 36.2711 37.1151 36.3104 37.0954 36.3577C37.0709 36.4593 37.0626 36.564 37.0706 36.6682V38.7826C37.0639 38.8869 37.0734 38.9916 37.0985 39.0931V39.0837ZM40.756 36.277C40.7063 36.3086 40.6682 36.3555 40.6473 36.4105C40.6175 36.5112 40.6049 36.6161 40.61 36.721V39.3973H40.5293L38.3559 36.721V38.764C38.3471 38.8321 38.3539 38.9014 38.376 38.9666C38.3981 39.0317 38.4347 39.0909 38.4832 39.1396C38.5664 39.2049 38.6694 39.24 38.7751 39.239H38.8496V39.3259H37.7039V39.239C37.769 39.2535 37.8368 39.2514 37.9008 39.2329C37.9649 39.2144 38.0233 39.1801 38.0706 39.1331C38.118 39.086 38.1527 39.0279 38.1716 38.9639C38.1906 38.9 38.1931 38.8323 38.179 38.7671V36.5005L38.1107 36.4136C38.0624 36.3463 38.0012 36.2893 37.9306 36.2459C37.86 36.2156 37.7838 36.2008 37.707 36.2025V36.1155H38.8465L40.4331 38.1088V36.7272C40.4468 36.5912 40.4175 36.4544 40.3492 36.336C40.3001 36.2859 40.2401 36.2478 40.1739 36.2246C40.1077 36.2015 40.037 36.1939 39.9674 36.2025V36.1155H41.0292V36.2025C40.9348 36.2088 40.8423 36.2319 40.756 36.2708" fill="white"/>
</svg>
