<svg width="32" height="32" viewBox="0 0 32 32" fill="none" xmlns="http://www.w3.org/2000/svg">
<path d="M15.9857 8C7.83133 8 2 16.2966 2 16.2966C2 16.2966 7.83133 24.5932 15.9857 24.5932C24.1401 24.5932 29.9714 16.2966 29.9714 16.2966C29.9714 16.2966 24.1401 8 15.9857 8Z" stroke="#A2ABAA" stroke-miterlimit="10" stroke-linecap="round" stroke-linejoin="round"/>
<path d="M15.987 20.8004C18.6054 20.8004 20.7279 18.6779 20.7279 16.0595C20.7279 13.4412 18.6054 11.3186 15.987 11.3186C13.3687 11.3186 11.2461 13.4412 11.2461 16.0595C11.2461 18.6779 13.3687 20.8004 15.987 20.8004Z" stroke="#A2ABAA" stroke-miterlimit="10" stroke-linecap="round" stroke-linejoin="round"/>
<path d="M14.3264 15.1115C14.1592 15.401 14.0715 15.7296 14.0723 16.0639C14.073 16.3982 14.1621 16.7264 14.3306 17.0152C14.4991 17.304 14.7409 17.5431 15.0315 17.7084C15.3222 17.8736 15.6514 17.959 15.9857 17.956" stroke="#A2ABAA" stroke-miterlimit="10" stroke-linecap="round" stroke-linejoin="round"/>
</svg>
