<svg  viewBox="0 0 11 16" fill="none" xmlns="http://www.w3.org/2000/svg">
<path d="M6.47309 1.50012V0.500122L4.47309 0.500122V1.50012L6.47309 1.50012ZM5.47309 14.2617L4.76598 14.9688L5.47309 15.6759L6.1802 14.9688L5.47309 14.2617ZM9.65329 11.4957L10.3604 10.7886L8.94618 9.37439L8.23907 10.0815L9.65329 11.4957ZM2.70711 10.0815L2 9.37439L0.585786 10.7886L1.29289 11.4957L2.70711 10.0815ZM4.47309 1.50012L4.47309 14.2617H6.47309L6.47309 1.50012L4.47309 1.50012ZM8.23907 10.0815L4.76598 13.5546L6.1802 14.9688L9.65329 11.4957L8.23907 10.0815ZM6.1802 13.5546L2.70711 10.0815L1.29289 11.4957L4.76598 14.9688L6.1802 13.5546Z" fill="#333333"/>
</svg>
