<svg width="28" height="34" viewBox="0 0 28 34" fill="none" xmlns="http://www.w3.org/2000/svg">
<path d="M15.5 2V0.5H12.5V2H15.5ZM14 31L12.9454 32.0667L14 33.1093L15.0546 32.0667L14 31ZM26.0546 21.1917L27.1213 20.1371L25.0121 18.0037L23.9454 19.0583L26.0546 21.1917ZM4.05458 19.0583L2.98788 18.0037L0.878714 20.1371L1.94542 21.1917L4.05458 19.0583ZM12.5 2V31H15.5V2H12.5ZM23.9454 19.0583L12.9454 29.9333L15.0546 32.0667L26.0546 21.1917L23.9454 19.0583ZM15.0546 29.9333L4.05458 19.0583L1.94542 21.1917L12.9454 32.0667L15.0546 29.9333Z" fill="#333333"/>
</svg>
