<svg width="9" height="9" viewBox="0 0 9 9" fill="none" xmlns="http://www.w3.org/2000/svg">
<path d="M1.10222 7.65123L0.748669 8.00479L1.45578 8.71189L1.80933 8.35834L1.10222 7.65123ZM8.0047 1.45587L8.5047 1.45586L8.5047 0.955865L8.0047 0.955865L8.0047 1.45587ZM3.09301 0.955866L2.59301 0.955866L2.59301 1.95587L3.09301 1.95587L3.09301 0.955866ZM7.5047 6.36756L7.5047 6.86756L8.5047 6.86756L8.5047 6.36756L7.5047 6.36756ZM1.80933 8.35834L8.35825 1.80942L7.65114 1.10231L1.10222 7.65123L1.80933 8.35834ZM3.09301 1.95587L8.0047 1.95587L8.0047 0.955865L3.09301 0.955866L3.09301 1.95587ZM7.5047 1.45587L7.5047 6.36756L8.5047 6.36756L8.5047 1.45586L7.5047 1.45587Z" fill="#28798E"/>
</svg>
