<svg width="9" height="9" viewBox="0 0 9 9" fill="none" xmlns="http://www.w3.org/2000/svg">
<path d="M1.10222 7.65154L0.748669 8.00509L1.45578 8.7122L1.80933 8.35865L1.10222 7.65154ZM8.0047 1.45617L8.5047 1.45617L8.5047 0.95617L8.0047 0.95617L8.0047 1.45617ZM3.09301 0.956171L2.59301 0.956171L2.59301 1.95617L3.09301 1.95617L3.09301 0.956171ZM7.5047 6.36786L7.5047 6.86786L8.5047 6.86786L8.5047 6.36786L7.5047 6.36786ZM1.80933 8.35865L8.35825 1.80972L7.65114 1.10262L1.10222 7.65154L1.80933 8.35865ZM3.09301 1.95617L8.0047 1.95617L8.0047 0.95617L3.09301 0.956171L3.09301 1.95617ZM7.5047 1.45617L7.5047 6.36786L8.5047 6.36786L8.5047 1.45617L7.5047 1.45617Z" fill="white"/>
</svg>
