<svg width="11" height="14" viewBox="0 0 11 14" fill="none" xmlns="http://www.w3.org/2000/svg">
<path d="M5.97309 1L5.97309 0.500001L4.97309 0.500001L4.97309 1L5.97309 1ZM5.47309 10.2616L5.11953 10.6151L5.47309 10.9687L5.82664 10.6151L5.47309 10.2616ZM9.29973 7.14204L9.65329 6.78848L8.94618 6.08138L8.59263 6.43493L9.29973 7.14204ZM2.35355 6.43493L2 6.08138L1.29289 6.78848L1.64645 7.14204L2.35355 6.43493ZM4.97309 1L4.97309 10.2616L5.97309 10.2616L5.97309 1L4.97309 1ZM8.59263 6.43493L5.11953 9.90802L5.82664 10.6151L9.29973 7.14204L8.59263 6.43493ZM5.82664 9.90802L2.35355 6.43493L1.64645 7.14204L5.11953 10.6151L5.82664 9.90802Z" fill="#28798E"/>
<line y1="13.5" x2="11" y2="13.5" stroke="#28798E"/>
</svg>
