<svg width="84" height="84" viewBox="0 0 84 84" fill="none" xmlns="http://www.w3.org/2000/svg">
<path d="M33.0606 20.4184C25.2172 13.6864 13.7158 13.7157 13.7158 13.7157C13.7158 13.7157 13.6865 25.2172 20.4186 33.0606C10.1122 33.8464 2 41.9999 2 41.9999C2 41.9999 10.1122 50.1535 20.4187 50.9393C13.6863 58.7826 13.7156 70.2846 13.7156 70.2846C13.7156 70.2846 25.2172 70.3138 33.0606 63.5816C33.8465 73.888 41.9999 82 41.9999 82C41.9999 82 50.1534 73.8879 50.9392 63.5816C58.7826 70.3137 70.2842 70.2844 70.2842 70.2844C70.2842 70.2844 70.3135 58.7826 63.5812 50.9393C73.8877 50.1536 82 41.9999 82 41.9999C82 41.9999 73.9245 33.8832 63.6512 33.066C70.4449 25.2213 70.4154 13.6499 70.4154 13.6499C70.4154 13.6499 58.7882 13.6203 50.9426 20.4634C50.1771 10.1357 41.9999 2 41.9999 2C41.9999 2 33.8465 10.112 33.0606 20.4184Z" stroke="#28798E" stroke-width="2"/>
</svg>
