<svg width="21" height="18" viewBox="0 0 21 18" fill="none" xmlns="http://www.w3.org/2000/svg">
<path d="M1.05 0.429688H19.95C20.2285 0.429688 20.4956 0.529191 20.6925 0.706309C20.8894 0.883426 21 1.12365 21 1.37413V16.4852C21 16.7357 20.8894 16.9759 20.6925 17.1531C20.4956 17.3302 20.2285 17.4297 19.95 17.4297H1.05C0.771523 17.4297 0.504451 17.3302 0.307538 17.1531C0.110625 16.9759 0 16.7357 0 16.4852V1.37413C0 1.12365 0.110625 0.883426 0.307538 0.706309C0.504451 0.529191 0.771523 0.429688 1.05 0.429688ZM18.9 4.43224L10.5756 11.1378L2.1 4.41147V15.5408H18.9V4.43224ZM2.63655 2.31858L10.564 8.61047L18.3771 2.31858H2.63655Z" fill="#29767E"/>
</svg>
