<svg width="22" height="23" viewBox="0 0 22 23" fill="none" xmlns="http://www.w3.org/2000/svg">
<path d="M2.34567 3.48523C2.34444 12.6534 9.77633 20.0852 18.9444 20.0852C19.1497 20.0852 19.3553 20.0816 19.5598 20.0729L19.6556 20.0689V19.973V16.75V16.6638L19.5702 16.6511C18.0289 16.4223 16.5284 15.9735 15.1145 15.3185L15.0393 15.2837L14.9911 15.3511L13.3778 17.6099C12.74 17.3584 12.1201 17.0636 11.5224 16.7278C11.5222 16.7278 11.5221 16.7277 11.522 16.7276L11.4516 16.6875C9.06991 15.3321 7.09759 13.3598 5.74214 10.9781C5.74214 10.9781 5.74213 10.9781 5.74213 10.9781L5.70207 10.9077C5.70202 10.9076 5.70197 10.9075 5.70191 10.9074C5.36607 10.3096 5.07134 9.68968 4.81974 9.05189L7.07856 7.43862L7.14603 7.39043L7.11118 7.31521C6.45616 5.90133 6.00739 4.40079 5.77858 2.85945L5.76592 2.77413H5.67967H2.45667H2.36022L2.35673 2.87052C2.34935 3.07462 2.34567 3.27992 2.34567 3.48523ZM2.34567 3.48523L2.44567 3.48524L2.34567 3.48523ZM7.72256 9.73742L7.64912 9.78985L7.69376 9.86827C8.8495 11.8987 10.531 13.5802 12.5614 14.7359L12.6398 14.7806L12.6923 14.7071L13.7727 13.194C13.9322 12.9706 14.1681 12.8135 14.4357 12.7522C14.7033 12.691 14.9841 12.73 15.2249 12.8618L15.2249 12.8619C16.9659 13.8133 18.8886 14.3856 20.8665 14.5409C21.1479 14.5633 21.4106 14.6908 21.6021 14.8982C21.7937 15.1055 21.9 15.3775 21.9 15.6598V21.1134C21.9001 21.3912 21.797 21.6592 21.6109 21.8655C21.4247 22.0718 21.1686 22.2016 20.8922 22.23L20.8921 22.23C20.2479 22.2969 19.5986 22.3297 18.9444 22.3297C8.53745 22.3297 0.1 13.8922 0.1 3.48524C0.1 2.83104 0.132832 2.18182 0.199688 1.53756L0.199701 1.53744C0.228042 1.26104 0.357916 1.00497 0.564187 0.81881C0.770458 0.632648 1.03846 0.529628 1.31631 0.529688H1.31633H6.76989H6.7699C7.05221 0.529652 7.32416 0.63602 7.53153 0.827582C7.7389 1.01914 7.86645 1.28183 7.88876 1.56325C8.04414 3.54116 8.61636 5.46378 9.5678 7.20475L9.56784 7.20482C9.69966 7.44561 9.73866 7.72636 9.67744 7.99396C9.61623 8.26156 9.45906 8.49744 9.23566 8.65698L7.72256 9.73742Z" fill="#29767E" stroke="white" stroke-width="0.2"/>
</svg>
