<svg width="10" height="10" viewBox="0 0 10 10" fill="none" xmlns="http://www.w3.org/2000/svg">
<path d="M6.00009 1L6.00009 5.96046e-08L4.00009 -5.96046e-08L4.00009 1L6.00009 1ZM4.00009 9L4.00009 10L6.00009 10L6.00009 9L4.00009 9ZM8.99993 6L9.99993 6.00007L10.0001 4.00007L9.00007 4L8.99993 6ZM1.00007 3.99945L6.81006e-05 3.99939L-6.8096e-05 5.99939L0.999932 5.99945L1.00007 3.99945ZM4.00009 1L4.00009 9L6.00009 9L6.00009 1L4.00009 1ZM9.00007 4L1.00007 3.99945L0.999932 5.99945L8.99993 6L9.00007 4Z" fill="#333333"/>
</svg>
