<svg  viewBox="0 0 18 18" fill="none" xmlns="http://www.w3.org/2000/svg">
<path d="M15.8586 5.47745C15.8586 5.8477 16.159 6.14804 16.5292 6.14804C16.8995 6.14804 17.1998 5.8477 17.1998 5.47745V1.47058C17.1998 1.10034 16.8995 0.8 16.5292 0.8H12.5223C12.1521 0.8 11.8518 1.10034 11.8518 1.47058C11.8518 1.84083 12.1521 2.14117 12.5223 2.14117H15.8586V5.47745Z" fill="#263238" stroke="#263238" stroke-width="0.4"/>
<path d="M8.63036 9.29781C8.36993 9.03487 8.37158 8.61015 8.63502 8.34951L15.7962 1.25548C16.0594 0.994801 16.4843 0.997331 16.7445 1.25999C17.005 1.5229 17.0034 1.9476 16.74 2.20827L8.63036 9.29781ZM8.63036 9.29781H8.63036C8.76139 9.43019 8.93458 9.49656 9.10683 9.49656C9.27685 9.49656 9.44799 9.43203 9.57872 9.30239C9.57875 9.30236 9.57879 9.30233 9.57882 9.3023L16.7399 2.20836L8.63036 9.29781Z" fill="#263238" stroke="#263238" stroke-width="0.4"/>
<path d="M3.82354 17.1999H12.6196C14.2869 17.1999 15.6431 15.8437 15.6431 14.1764V8.32149C15.6431 7.95124 15.3428 7.6509 14.9725 7.6509C14.6023 7.6509 14.302 7.95124 14.302 8.32149V14.1763C14.302 15.1039 13.5472 15.8587 12.6196 15.8587H3.82354C2.89603 15.8587 2.1412 15.1039 2.1412 14.1763V5.38027C2.1412 4.45276 2.896 3.69793 3.82354 3.69793H9.47058C9.84083 3.69793 10.1412 3.39759 10.1412 3.02735C10.1412 2.6571 9.84083 2.35676 9.47058 2.35676H3.82354C2.15621 2.35676 0.8 3.71297 0.8 5.3803V14.1764C0.8 15.8437 2.15621 17.1999 3.82354 17.1999Z" fill="#263238" stroke="#263238" stroke-width="0.4"/>
</svg>
